<mxfile host="65bd71144e">
    <diagram name="Page-1" id="jhKemOOHnK0n_ZZGH8v2">
        <mxGraphModel dx="1292" dy="478" grid="1" gridSize="10" guides="1" tooltips="1" connect="1" arrows="1" fold="1" page="1" pageScale="1" pageWidth="1654" pageHeight="1169" math="0" shadow="0">
            <root>
                <mxCell id="0"/>
                <mxCell id="1" parent="0"/>
                <mxCell id="-A0YXUbrN51Ob88tYX6_-74" value="" style="rounded=0;whiteSpace=wrap;html=1;fillColor=#e1d5e7;strokeColor=#9673a6;" parent="1" vertex="1">
                    <mxGeometry x="790" y="360" width="390" height="240" as="geometry"/>
                </mxCell>
                <mxCell id="-A0YXUbrN51Ob88tYX6_-70" style="edgeStyle=orthogonalEdgeStyle;rounded=0;orthogonalLoop=1;jettySize=auto;html=1;" parent="1" target="-A0YXUbrN51Ob88tYX6_-54" edge="1">
                    <mxGeometry relative="1" as="geometry">
                        <mxPoint x="985" y="40" as="sourcePoint"/>
                    </mxGeometry>
                </mxCell>
                <mxCell id="-A0YXUbrN51Ob88tYX6_-71" value="FMC_CLK" style="edgeLabel;html=1;align=center;verticalAlign=middle;resizable=0;points=[];" parent="-A0YXUbrN51Ob88tYX6_-70" vertex="1" connectable="0">
                    <mxGeometry x="-0.448" y="-2" relative="1" as="geometry">
                        <mxPoint as="offset"/>
                    </mxGeometry>
                </mxCell>
                <mxCell id="-A0YXUbrN51Ob88tYX6_-72" value="MMCM" style="edgeLabel;html=1;align=center;verticalAlign=middle;resizable=0;points=[];" parent="-A0YXUbrN51Ob88tYX6_-70" vertex="1" connectable="0">
                    <mxGeometry x="0.2044" relative="1" as="geometry">
                        <mxPoint as="offset"/>
                    </mxGeometry>
                </mxCell>
                <mxCell id="-A0YXUbrN51Ob88tYX6_-54" value="" style="rounded=0;whiteSpace=wrap;html=1;fillColor=#fff2cc;strokeColor=#d6b656;" parent="1" vertex="1">
                    <mxGeometry x="790" y="130" width="390" height="230" as="geometry"/>
                </mxCell>
                <mxCell id="-A0YXUbrN51Ob88tYX6_-39" style="edgeStyle=orthogonalEdgeStyle;rounded=0;orthogonalLoop=1;jettySize=auto;html=1;" parent="1" target="-A0YXUbrN51Ob88tYX6_-38" edge="1">
                    <mxGeometry relative="1" as="geometry">
                        <mxPoint x="550" y="690" as="sourcePoint"/>
                    </mxGeometry>
                </mxCell>
                <mxCell id="-A0YXUbrN51Ob88tYX6_-40" value="FMC_CLK" style="edgeLabel;html=1;align=center;verticalAlign=middle;resizable=0;points=[];" parent="-A0YXUbrN51Ob88tYX6_-39" vertex="1" connectable="0">
                    <mxGeometry x="-0.3155" y="2" relative="1" as="geometry">
                        <mxPoint as="offset"/>
                    </mxGeometry>
                </mxCell>
                <mxCell id="-A0YXUbrN51Ob88tYX6_-41" value="PLL" style="edgeLabel;html=1;align=center;verticalAlign=middle;resizable=0;points=[];" parent="-A0YXUbrN51Ob88tYX6_-39" vertex="1" connectable="0">
                    <mxGeometry x="0.2486" relative="1" as="geometry">
                        <mxPoint as="offset"/>
                    </mxGeometry>
                </mxCell>
                <mxCell id="-A0YXUbrN51Ob88tYX6_-38" value="" style="rounded=0;whiteSpace=wrap;html=1;fillColor=#ffe6cc;strokeColor=#d79b00;" parent="1" vertex="1">
                    <mxGeometry x="310" y="360" width="480" height="240" as="geometry"/>
                </mxCell>
                <mxCell id="-A0YXUbrN51Ob88tYX6_-29" style="edgeStyle=orthogonalEdgeStyle;rounded=0;orthogonalLoop=1;jettySize=auto;html=1;" parent="1" target="-A0YXUbrN51Ob88tYX6_-28" edge="1">
                    <mxGeometry relative="1" as="geometry">
                        <mxPoint x="550" y="50" as="sourcePoint"/>
                    </mxGeometry>
                </mxCell>
                <mxCell id="-A0YXUbrN51Ob88tYX6_-30" value="FMC_CLK" style="edgeLabel;html=1;align=center;verticalAlign=middle;resizable=0;points=[];" parent="-A0YXUbrN51Ob88tYX6_-29" vertex="1" connectable="0">
                    <mxGeometry x="-0.2338" y="1" relative="1" as="geometry">
                        <mxPoint as="offset"/>
                    </mxGeometry>
                </mxCell>
                <mxCell id="-A0YXUbrN51Ob88tYX6_-33" value="MMCM" style="edgeLabel;html=1;align=center;verticalAlign=middle;resizable=0;points=[];" parent="-A0YXUbrN51Ob88tYX6_-29" vertex="1" connectable="0">
                    <mxGeometry x="0.2766" relative="1" as="geometry">
                        <mxPoint as="offset"/>
                    </mxGeometry>
                </mxCell>
                <mxCell id="-A0YXUbrN51Ob88tYX6_-28" value="" style="rounded=0;whiteSpace=wrap;html=1;fillColor=#f8cecc;strokeColor=#b85450;" parent="1" vertex="1">
                    <mxGeometry x="310" y="130" width="480" height="230" as="geometry"/>
                </mxCell>
                <mxCell id="-A0YXUbrN51Ob88tYX6_-14" style="edgeStyle=orthogonalEdgeStyle;rounded=0;orthogonalLoop=1;jettySize=auto;html=1;" parent="1" target="-A0YXUbrN51Ob88tYX6_-8" edge="1">
                    <mxGeometry relative="1" as="geometry">
                        <mxPoint x="175" y="50" as="sourcePoint"/>
                    </mxGeometry>
                </mxCell>
                <mxCell id="-A0YXUbrN51Ob88tYX6_-15" value="GCLK" style="edgeLabel;html=1;align=center;verticalAlign=middle;resizable=0;points=[];" parent="-A0YXUbrN51Ob88tYX6_-14" vertex="1" connectable="0">
                    <mxGeometry x="-0.1926" relative="1" as="geometry">
                        <mxPoint y="1" as="offset"/>
                    </mxGeometry>
                </mxCell>
                <mxCell id="-A0YXUbrN51Ob88tYX6_-32" value="PLL" style="edgeLabel;html=1;align=center;verticalAlign=middle;resizable=0;points=[];" parent="-A0YXUbrN51Ob88tYX6_-14" vertex="1" connectable="0">
                    <mxGeometry x="0.292" y="-1" relative="1" as="geometry">
                        <mxPoint as="offset"/>
                    </mxGeometry>
                </mxCell>
                <mxCell id="-A0YXUbrN51Ob88tYX6_-8" value="" style="rounded=0;whiteSpace=wrap;html=1;fillColor=#d5e8d4;strokeColor=#82b366;" parent="1" vertex="1">
                    <mxGeometry x="40" y="130" width="270" height="470" as="geometry"/>
                </mxCell>
                <mxCell id="-A0YXUbrN51Ob88tYX6_-5" style="edgeStyle=orthogonalEdgeStyle;rounded=0;orthogonalLoop=1;jettySize=auto;html=1;exitX=1;exitY=0.25;exitDx=0;exitDy=0;" parent="1" source="-A0YXUbrN51Ob88tYX6_-1" target="-A0YXUbrN51Ob88tYX6_-4" edge="1">
                    <mxGeometry relative="1" as="geometry"/>
                </mxCell>
                <mxCell id="-A0YXUbrN51Ob88tYX6_-7" style="edgeStyle=orthogonalEdgeStyle;rounded=0;orthogonalLoop=1;jettySize=auto;html=1;exitX=1;exitY=0.75;exitDx=0;exitDy=0;" parent="1" source="-A0YXUbrN51Ob88tYX6_-1" target="-A0YXUbrN51Ob88tYX6_-6" edge="1">
                    <mxGeometry relative="1" as="geometry"/>
                </mxCell>
                <mxCell id="-A0YXUbrN51Ob88tYX6_-1" value="&lt;b&gt;&lt;font style=&quot;font-size: 13px;&quot;&gt;Test_Core&lt;/font&gt;&lt;/b&gt;" style="rounded=0;whiteSpace=wrap;html=1;fillColor=#f5f5f5;fontColor=#333333;strokeColor=#666666;" parent="1" vertex="1">
                    <mxGeometry x="80" y="160" width="120" height="400" as="geometry"/>
                </mxCell>
                <mxCell id="-A0YXUbrN51Ob88tYX6_-24" style="edgeStyle=orthogonalEdgeStyle;rounded=0;orthogonalLoop=1;jettySize=auto;html=1;entryX=0;entryY=0.5;entryDx=0;entryDy=0;" parent="1" source="-A0YXUbrN51Ob88tYX6_-4" target="-A0YXUbrN51Ob88tYX6_-22" edge="1">
                    <mxGeometry relative="1" as="geometry"/>
                </mxCell>
                <mxCell id="-A0YXUbrN51Ob88tYX6_-25" style="edgeStyle=orthogonalEdgeStyle;rounded=0;orthogonalLoop=1;jettySize=auto;html=1;entryX=1;entryY=0.25;entryDx=0;entryDy=0;" parent="1" source="-A0YXUbrN51Ob88tYX6_-4" target="-A0YXUbrN51Ob88tYX6_-1" edge="1">
                    <mxGeometry relative="1" as="geometry"/>
                </mxCell>
                <mxCell id="-A0YXUbrN51Ob88tYX6_-4" value="FIFO" style="shape=cylinder3;whiteSpace=wrap;html=1;boundedLbl=1;backgroundOutline=1;size=15;" parent="1" vertex="1">
                    <mxGeometry x="280" y="220" width="60" height="80" as="geometry"/>
                </mxCell>
                <mxCell id="-A0YXUbrN51Ob88tYX6_-19" style="edgeStyle=orthogonalEdgeStyle;rounded=0;orthogonalLoop=1;jettySize=auto;html=1;entryX=0;entryY=0.5;entryDx=0;entryDy=0;" parent="1" source="-A0YXUbrN51Ob88tYX6_-6" target="-A0YXUbrN51Ob88tYX6_-18" edge="1">
                    <mxGeometry relative="1" as="geometry"/>
                </mxCell>
                <mxCell id="-A0YXUbrN51Ob88tYX6_-21" style="edgeStyle=orthogonalEdgeStyle;rounded=0;orthogonalLoop=1;jettySize=auto;html=1;entryX=1;entryY=0.75;entryDx=0;entryDy=0;" parent="1" source="-A0YXUbrN51Ob88tYX6_-6" target="-A0YXUbrN51Ob88tYX6_-1" edge="1">
                    <mxGeometry relative="1" as="geometry"/>
                </mxCell>
                <mxCell id="-A0YXUbrN51Ob88tYX6_-6" value="FIFO" style="shape=cylinder3;whiteSpace=wrap;html=1;boundedLbl=1;backgroundOutline=1;size=15;" parent="1" vertex="1">
                    <mxGeometry x="280" y="420" width="60" height="80" as="geometry"/>
                </mxCell>
                <mxCell id="-A0YXUbrN51Ob88tYX6_-9" value="BUFG" style="text;html=1;align=center;verticalAlign=middle;whiteSpace=wrap;rounded=0;" parent="1" vertex="1">
                    <mxGeometry x="40" y="570" width="60" height="30" as="geometry"/>
                </mxCell>
                <mxCell id="-A0YXUbrN51Ob88tYX6_-10" value="UART-&lt;div&gt;Transceiver&lt;/div&gt;" style="whiteSpace=wrap;html=1;aspect=fixed;fillColor=#f5f5f5;strokeColor=#666666;gradientColor=#b3b3b3;" parent="1" vertex="1">
                    <mxGeometry x="100" y="170" width="80" height="80" as="geometry"/>
                </mxCell>
                <mxCell id="-A0YXUbrN51Ob88tYX6_-11" value="Dual-Port&lt;div&gt;RAM&lt;/div&gt;" style="whiteSpace=wrap;html=1;aspect=fixed;fillColor=#f5f5f5;strokeColor=#666666;gradientColor=#b3b3b3;" parent="1" vertex="1">
                    <mxGeometry x="100" y="260" width="80" height="80" as="geometry"/>
                </mxCell>
                <mxCell id="-A0YXUbrN51Ob88tYX6_-12" value="Test-Control&lt;div&gt;Block&lt;/div&gt;" style="whiteSpace=wrap;html=1;aspect=fixed;fillColor=#f5f5f5;strokeColor=#666666;gradientColor=#b3b3b3;" parent="1" vertex="1">
                    <mxGeometry x="100" y="380" width="80" height="80" as="geometry"/>
                </mxCell>
                <mxCell id="-A0YXUbrN51Ob88tYX6_-13" value="Test-Loop&lt;div&gt;Block&lt;/div&gt;" style="whiteSpace=wrap;html=1;aspect=fixed;fillColor=#f5f5f5;strokeColor=#666666;gradientColor=#b3b3b3;" parent="1" vertex="1">
                    <mxGeometry x="100" y="470" width="80" height="80" as="geometry"/>
                </mxCell>
                <mxCell id="-A0YXUbrN51Ob88tYX6_-20" style="edgeStyle=orthogonalEdgeStyle;rounded=0;orthogonalLoop=1;jettySize=auto;html=1;" parent="1" source="-A0YXUbrN51Ob88tYX6_-18" target="-A0YXUbrN51Ob88tYX6_-6" edge="1">
                    <mxGeometry relative="1" as="geometry"/>
                </mxCell>
                <mxCell id="-A0YXUbrN51Ob88tYX6_-18" value="&lt;b&gt;Lvds-Slave&lt;/b&gt;" style="rounded=0;whiteSpace=wrap;html=1;" parent="1" vertex="1">
                    <mxGeometry x="400" y="380" width="280" height="160" as="geometry"/>
                </mxCell>
                <mxCell id="-A0YXUbrN51Ob88tYX6_-22" value="&lt;b&gt;Lvds-Master&lt;/b&gt;" style="rounded=0;whiteSpace=wrap;html=1;fillColor=#f5f5f5;fontColor=#333333;strokeColor=#666666;" parent="1" vertex="1">
                    <mxGeometry x="400" y="180" width="280" height="160" as="geometry"/>
                </mxCell>
                <mxCell id="-A0YXUbrN51Ob88tYX6_-23" style="edgeStyle=orthogonalEdgeStyle;rounded=0;orthogonalLoop=1;jettySize=auto;html=1;entryX=1;entryY=0.5;entryDx=0;entryDy=0;entryPerimeter=0;" parent="1" source="-A0YXUbrN51Ob88tYX6_-22" target="-A0YXUbrN51Ob88tYX6_-4" edge="1">
                    <mxGeometry relative="1" as="geometry"/>
                </mxCell>
                <mxCell id="-A0YXUbrN51Ob88tYX6_-26" value="Frame-Builder" style="rounded=0;whiteSpace=wrap;html=1;fillColor=#f5f5f5;strokeColor=#666666;gradientColor=#b3b3b3;" parent="1" vertex="1">
                    <mxGeometry x="590" y="190" width="80" height="60" as="geometry"/>
                </mxCell>
                <mxCell id="-A0YXUbrN51Ob88tYX6_-27" value="Frame-Aligner" style="rounded=0;whiteSpace=wrap;html=1;fillColor=#f5f5f5;strokeColor=#666666;gradientColor=#b3b3b3;" parent="1" vertex="1">
                    <mxGeometry x="590" y="270" width="80" height="60" as="geometry"/>
                </mxCell>
                <mxCell id="-A0YXUbrN51Ob88tYX6_-31" value="BUFG&amp;nbsp;" style="text;html=1;align=center;verticalAlign=middle;whiteSpace=wrap;rounded=0;" parent="1" vertex="1">
                    <mxGeometry x="320" y="130" width="130" height="30" as="geometry"/>
                </mxCell>
                <mxCell id="-A0YXUbrN51Ob88tYX6_-34" value="Controller" style="rounded=0;whiteSpace=wrap;html=1;fillColor=#f5f5f5;strokeColor=#666666;gradientColor=#b3b3b3;" parent="1" vertex="1">
                    <mxGeometry x="410" y="190" width="80" height="140" as="geometry"/>
                </mxCell>
                <mxCell id="-A0YXUbrN51Ob88tYX6_-35" value="Frame-Aligner" style="rounded=0;whiteSpace=wrap;html=1;fillColor=#f5f5f5;strokeColor=#666666;gradientColor=#b3b3b3;" parent="1" vertex="1">
                    <mxGeometry x="590" y="470" width="80" height="60" as="geometry"/>
                </mxCell>
                <mxCell id="-A0YXUbrN51Ob88tYX6_-36" value="Frame-Builder" style="rounded=0;whiteSpace=wrap;html=1;fillColor=#f5f5f5;strokeColor=#666666;gradientColor=#b3b3b3;" parent="1" vertex="1">
                    <mxGeometry x="590" y="390" width="80" height="60" as="geometry"/>
                </mxCell>
                <mxCell id="-A0YXUbrN51Ob88tYX6_-37" value="Controller" style="rounded=0;whiteSpace=wrap;html=1;fillColor=#f5f5f5;strokeColor=#666666;gradientColor=#b3b3b3;" parent="1" vertex="1">
                    <mxGeometry x="410" y="390" width="80" height="140" as="geometry"/>
                </mxCell>
                <mxCell id="-A0YXUbrN51Ob88tYX6_-47" style="edgeStyle=orthogonalEdgeStyle;rounded=0;orthogonalLoop=1;jettySize=auto;html=1;" parent="1" source="-A0YXUbrN51Ob88tYX6_-42" edge="1">
                    <mxGeometry relative="1" as="geometry">
                        <mxPoint x="820" y="260" as="targetPoint"/>
                    </mxGeometry>
                </mxCell>
                <mxCell id="-A0YXUbrN51Ob88tYX6_-42" value="&lt;b&gt;Lvds-Master&lt;/b&gt;&lt;div&gt;&lt;b&gt;(Physical)&lt;/b&gt;&lt;/div&gt;" style="rounded=0;whiteSpace=wrap;html=1;fillColor=#f5f5f5;fontColor=#333333;strokeColor=#666666;" parent="1" vertex="1">
                    <mxGeometry x="880" y="180" width="280" height="160" as="geometry"/>
                </mxCell>
                <mxCell id="-A0YXUbrN51Ob88tYX6_-45" style="edgeStyle=orthogonalEdgeStyle;rounded=0;orthogonalLoop=1;jettySize=auto;html=1;entryX=1;entryY=0.5;entryDx=0;entryDy=0;" parent="1" source="-A0YXUbrN51Ob88tYX6_-43" target="-A0YXUbrN51Ob88tYX6_-22" edge="1">
                    <mxGeometry relative="1" as="geometry"/>
                </mxCell>
                <mxCell id="-A0YXUbrN51Ob88tYX6_-46" style="edgeStyle=orthogonalEdgeStyle;rounded=0;orthogonalLoop=1;jettySize=auto;html=1;entryX=0;entryY=0.5;entryDx=0;entryDy=0;" parent="1" source="-A0YXUbrN51Ob88tYX6_-43" target="-A0YXUbrN51Ob88tYX6_-42" edge="1">
                    <mxGeometry relative="1" as="geometry"/>
                </mxCell>
                <mxCell id="-A0YXUbrN51Ob88tYX6_-43" value="Elastic" style="shape=cylinder3;whiteSpace=wrap;html=1;boundedLbl=1;backgroundOutline=1;size=15;" parent="1" vertex="1">
                    <mxGeometry x="760" y="220" width="60" height="80" as="geometry"/>
                </mxCell>
                <mxCell id="-A0YXUbrN51Ob88tYX6_-44" style="edgeStyle=orthogonalEdgeStyle;rounded=0;orthogonalLoop=1;jettySize=auto;html=1;entryX=0;entryY=0.5;entryDx=0;entryDy=0;entryPerimeter=0;" parent="1" source="-A0YXUbrN51Ob88tYX6_-22" target="-A0YXUbrN51Ob88tYX6_-43" edge="1">
                    <mxGeometry relative="1" as="geometry"/>
                </mxCell>
                <mxCell id="-A0YXUbrN51Ob88tYX6_-48" style="edgeStyle=orthogonalEdgeStyle;rounded=0;orthogonalLoop=1;jettySize=auto;html=1;" parent="1" source="-A0YXUbrN51Ob88tYX6_-49" edge="1">
                    <mxGeometry relative="1" as="geometry">
                        <mxPoint x="820" y="460" as="targetPoint"/>
                    </mxGeometry>
                </mxCell>
                <mxCell id="-A0YXUbrN51Ob88tYX6_-49" value="&lt;b&gt;Lvds-Slave&lt;/b&gt;&lt;div&gt;&lt;b&gt;(Physical)&lt;/b&gt;&lt;/div&gt;" style="rounded=0;whiteSpace=wrap;html=1;fillColor=#f5f5f5;fontColor=#333333;strokeColor=#666666;" parent="1" vertex="1">
                    <mxGeometry x="880" y="380" width="280" height="160" as="geometry"/>
                </mxCell>
                <mxCell id="-A0YXUbrN51Ob88tYX6_-50" style="edgeStyle=orthogonalEdgeStyle;rounded=0;orthogonalLoop=1;jettySize=auto;html=1;entryX=0;entryY=0.5;entryDx=0;entryDy=0;" parent="1" source="-A0YXUbrN51Ob88tYX6_-51" target="-A0YXUbrN51Ob88tYX6_-49" edge="1">
                    <mxGeometry relative="1" as="geometry"/>
                </mxCell>
                <mxCell id="-A0YXUbrN51Ob88tYX6_-52" style="edgeStyle=orthogonalEdgeStyle;rounded=0;orthogonalLoop=1;jettySize=auto;html=1;entryX=1;entryY=0.5;entryDx=0;entryDy=0;" parent="1" source="-A0YXUbrN51Ob88tYX6_-51" target="-A0YXUbrN51Ob88tYX6_-18" edge="1">
                    <mxGeometry relative="1" as="geometry"/>
                </mxCell>
                <mxCell id="-A0YXUbrN51Ob88tYX6_-51" value="Elastic" style="shape=cylinder3;whiteSpace=wrap;html=1;boundedLbl=1;backgroundOutline=1;size=15;" parent="1" vertex="1">
                    <mxGeometry x="760" y="420" width="60" height="80" as="geometry"/>
                </mxCell>
                <mxCell id="-A0YXUbrN51Ob88tYX6_-53" style="edgeStyle=orthogonalEdgeStyle;rounded=0;orthogonalLoop=1;jettySize=auto;html=1;entryX=0;entryY=0.5;entryDx=0;entryDy=0;entryPerimeter=0;" parent="1" source="-A0YXUbrN51Ob88tYX6_-18" target="-A0YXUbrN51Ob88tYX6_-51" edge="1">
                    <mxGeometry relative="1" as="geometry"/>
                </mxCell>
                <mxCell id="-A0YXUbrN51Ob88tYX6_-59" value="SERDES" style="rounded=0;whiteSpace=wrap;html=1;fillColor=#f5f5f5;strokeColor=#666666;gradientColor=#b3b3b3;" parent="1" vertex="1">
                    <mxGeometry x="1070" y="190" width="80" height="60" as="geometry"/>
                </mxCell>
                <mxCell id="-A0YXUbrN51Ob88tYX6_-75" style="edgeStyle=orthogonalEdgeStyle;rounded=0;orthogonalLoop=1;jettySize=auto;html=1;entryX=1;entryY=0.75;entryDx=0;entryDy=0;" parent="1" source="-A0YXUbrN51Ob88tYX6_-60" target="-A0YXUbrN51Ob88tYX6_-74" edge="1">
                    <mxGeometry relative="1" as="geometry">
                        <Array as="points">
                            <mxPoint x="1260" y="300"/>
                            <mxPoint x="1260" y="540"/>
                        </Array>
                    </mxGeometry>
                </mxCell>
                <mxCell id="-A0YXUbrN51Ob88tYX6_-76" value="TX-CLOCK" style="edgeLabel;html=1;align=center;verticalAlign=middle;resizable=0;points=[];" parent="-A0YXUbrN51Ob88tYX6_-75" vertex="1" connectable="0">
                    <mxGeometry x="0.8116" y="1" relative="1" as="geometry">
                        <mxPoint as="offset"/>
                    </mxGeometry>
                </mxCell>
                <mxCell id="-A0YXUbrN51Ob88tYX6_-60" value="ODDR" style="rounded=0;whiteSpace=wrap;html=1;fillColor=#f5f5f5;strokeColor=#666666;gradientColor=#b3b3b3;" parent="1" vertex="1">
                    <mxGeometry x="1070" y="270" width="80" height="60" as="geometry"/>
                </mxCell>
                <mxCell id="-A0YXUbrN51Ob88tYX6_-61" value="SERDES" style="rounded=0;whiteSpace=wrap;html=1;fillColor=#f5f5f5;strokeColor=#666666;gradientColor=#b3b3b3;" parent="1" vertex="1">
                    <mxGeometry x="1070" y="390" width="80" height="60" as="geometry"/>
                </mxCell>
                <mxCell id="-A0YXUbrN51Ob88tYX6_-64" value="Gearbox" style="rounded=0;whiteSpace=wrap;html=1;fillColor=#f5f5f5;strokeColor=#666666;gradientColor=#b3b3b3;" parent="1" vertex="1">
                    <mxGeometry x="890" y="190" width="80" height="60" as="geometry"/>
                </mxCell>
                <mxCell id="-A0YXUbrN51Ob88tYX6_-65" value="Delay" style="rounded=0;whiteSpace=wrap;html=1;fillColor=#f5f5f5;strokeColor=#666666;gradientColor=#b3b3b3;" parent="1" vertex="1">
                    <mxGeometry x="890" y="270" width="80" height="60" as="geometry"/>
                </mxCell>
                <mxCell id="-A0YXUbrN51Ob88tYX6_-66" value="Gearbox" style="rounded=0;whiteSpace=wrap;html=1;fillColor=#f5f5f5;strokeColor=#666666;gradientColor=#b3b3b3;" parent="1" vertex="1">
                    <mxGeometry x="890" y="390" width="80" height="60" as="geometry"/>
                </mxCell>
                <mxCell id="-A0YXUbrN51Ob88tYX6_-67" value="Delay" style="rounded=0;whiteSpace=wrap;html=1;fillColor=#f5f5f5;strokeColor=#666666;gradientColor=#b3b3b3;" parent="1" vertex="1">
                    <mxGeometry x="890" y="470" width="80" height="60" as="geometry"/>
                </mxCell>
                <mxCell id="-A0YXUbrN51Ob88tYX6_-73" value="BUFR / BUFIO" style="text;html=1;align=center;verticalAlign=middle;whiteSpace=wrap;rounded=0;" parent="1" vertex="1">
                    <mxGeometry x="797" y="140" width="103" height="30" as="geometry"/>
                </mxCell>
                <mxCell id="-A0YXUbrN51Ob88tYX6_-77" value="&amp;nbsp;BUFG" style="text;html=1;align=center;verticalAlign=middle;whiteSpace=wrap;rounded=0;" parent="1" vertex="1">
                    <mxGeometry x="320" y="560" width="103" height="30" as="geometry"/>
                </mxCell>
                <mxCell id="-A0YXUbrN51Ob88tYX6_-78" value="BUFR / BUFIO" style="text;html=1;align=center;verticalAlign=middle;whiteSpace=wrap;rounded=0;" parent="1" vertex="1">
                    <mxGeometry x="810" y="560" width="103" height="30" as="geometry"/>
                </mxCell>
            </root>
        </mxGraphModel>
    </diagram>
</mxfile>